<svg width="289.559" height="698.586" viewBox="0 0 289.559 698.586" fill="none" xmlns="http://www.w3.org/2000/svg">
<path id="Vector" d="M71.1099 9.59869L274.443 89.9444L280.782 92.4493L278.105 98.7178L251.869 160.159L249.335 166.094L243.333 163.724L109.749 110.961C119.896 138.169 128.92 165.83 137.329 193.432L137.335 193.455L137.343 193.479C184.268 351.664 207.317 516.964 204.847 685.418L204.752 691.953H122.61L122.712 685.22C125.162 524.391 103.931 366.747 58.2261 216.196V216.195C45.9768 176.184 32.0971 136.183 16.5904 96.9776V96.9766L9.23685 78.9219L7.68998 75.1241L10.397 72.042L63.69 11.3887L66.7701 7.88287L71.1099 9.59869Z" fill="white" stroke="black" stroke-width="13.2651"/>
</svg>
